<svg xmlns="http://www.w3.org/2000/svg" width="1510" height="414" viewBox="0 0 1510 414">
  <g fill="none" fill-rule="evenodd">
    <g fill-rule="nonzero" transform="translate(10 25)">
      <path fill="#BCB09B" d="M186.879 228.032L204.626 180l41.06 80.146L281 311l-135-36.989z"/>
      <path fill="#F9F9F9" d="M278.566 160l-19.845-27.839L241 0l90 104.312z"/>
      <path fill="#605A4E" d="M377 171.6L316.911 282 279 160.383 331.165 105z"/>
      <path fill="#EAEAEA" d="M205.109 181L171 78.528 192.133 51 258 131.886z"/>
      <path fill="#605A4E" d="M130 138.382L171.189 78 206 181z"/>
      <path fill="#605A4E" d="M88 170.198L130.04 139 205 181.546 187.437 230z" opacity=".6"/>
      <path fill="#605A4E" d="M66 204.338L87.597 169 188 228.135 147.151 274z" opacity=".3"/>
      <path fill="#898071" d="M0 267.004L65.215 204 146 273.755 118.052 300z" opacity=".1"/>
      <path fill="#705E45" d="M118 301.309L146.079 275 281 312.036 224.959 370z" opacity=".15"/>
      <path fill="#8C846F" d="M321.784 360L281 311.896 315.91 282 389 311.896z" opacity=".55"/>
      <path fill="#7A7262" d="M205 181.854L259.074 133 279 160.766 246.27 262z"/>
      <path fill="#8C846F" d="M245 260.176L277.734 159 316 280.894 280.5 311z"/>
      <path fill="#8C846F" d="M315 281.056L375.624 171 411 208.94 389.292 311z"/>
      <path fill="#C1B59A" d="M389 311.27L410.825 209 458 299.309 425.348 323z" opacity=".5"/>
      <path fill="#F4F4F4" d="M259 131l-67-79.963L241.297 0z"/>
    </g>
    <path fill="#47443C" fill-rule="nonzero" d="M573.03 135.8l70.446 145.5h-29.697v-.558l-66.202-31.183-15.158 31.78h-29.103l69.713-145.538zm-15.867 93.917l42.05 20.415-26.183-55.679-15.866 35.263zm195.311 27.317v24.318h-83.179V142.106h25.452v114.928zm131.848-61.284a55.504 55.504 0 0 1-3.878 20.695 51.76 51.76 0 0 1-10.977 17.072 52.385 52.385 0 0 1-16.875 11.606 53.315 53.315 0 0 1-21.563 4.284h-17.684v31.92H787.88V142.105h43.15a55.461 55.461 0 0 1 22.218 4.335c12.694 5.295 22.631 15.659 27.436 28.614a58.001 58.001 0 0 1 3.638 20.695zm-53.292 29.886a31.254 31.254 0 0 0 13.276-2.543 22.87 22.87 0 0 0 8.577-6.686 26.04 26.04 0 0 0 4.61-9.56 44.53 44.53 0 0 0 1.377-11.135c.007-3.662-.586-7.3-1.755-10.767a28.816 28.816 0 0 0-5.255-9.369 25.685 25.685 0 0 0-8.754-6.686 27.766 27.766 0 0 0-12.076-2.543h-17.684v59.2h17.684v.089zm131.495-30.077a155.442 155.442 0 0 1 18.442 7.894 56.459 56.459 0 0 1 13.642 9.56 37.292 37.292 0 0 1 8.489 12.432 42.62 42.62 0 0 1 2.956 16.525 41.654 41.654 0 0 1-3.5 17.263 39.113 39.113 0 0 1-9.776 13.36 45.314 45.314 0 0 1-15.158 8.72 58.713 58.713 0 0 1-19.642 3.153 49.467 49.467 0 0 1-19.188-3.623 48.156 48.156 0 0 1-15.157-9.826 44.582 44.582 0 0 1-10.106-14.479 43.891 43.891 0 0 1-3.6-17.72h26.186a21.18 21.18 0 0 0 1.755 8.631 21.906 21.906 0 0 0 4.8 6.966 22.359 22.359 0 0 0 7.01 4.64 20.93 20.93 0 0 0 8.211 1.665c7.748 0 13.31-1.695 16.687-5.084 3.377-3.39 5.06-8.183 5.052-14.378a17.895 17.895 0 0 0-1.478-7.627 15.156 15.156 0 0 0-4.61-5.567 39.283 39.283 0 0 0-7.933-4.551c-3.2-1.424-7.073-3-11.62-4.73a135.273 135.273 0 0 1-15.032-6.864 53.225 53.225 0 0 1-11.988-8.63 39.27 39.27 0 0 1-8.11-11.225 34.747 34.747 0 0 1-3.22-14.48 41.122 41.122 0 0 1 2.943-15.61 34.485 34.485 0 0 1 8.21-12.152 37.444 37.444 0 0 1 13.264-7.983 52.232 52.232 0 0 1 17.886-2.873 51.166 51.166 0 0 1 18.164 2.975 37.678 37.678 0 0 1 13.1 8.072 34.45 34.45 0 0 1 8.02 11.974 42.053 42.053 0 0 1 2.956 14.848h-25.667a17.383 17.383 0 0 0-4.889-10.17c-2.644-2.601-6.732-3.902-12.265-3.902-4.792 0-8.632 1.237-11.52 3.712-2.889 2.474-4.152 5.94-3.79 10.398a18.744 18.744 0 0 0 1.01 6.585 11.438 11.438 0 0 0 3.411 4.728 26.644 26.644 0 0 0 6.315 3.814 86.474 86.474 0 0 0 9.74 3.56z"/>
    <g fill="#8C846F" transform="translate(1048 135)">
      <path d="M28.39 100.073c-6.31 12.416-13.089 27.175-20.802 46.385-.935 2.343-2.104 2.577-3.74.938-3.272-3.515-5.61-10.543-2.104-23.193 5.844-21.319 27.815-65.83 48.383-98.16-7.946-.702-12.154-4.216-14.959-9.37-1.168-2.343-.467-3.514 2.572-3.983C57.373 10.348 74.903.743 90.564.04c11.92-.469 22.204 3.045 27.814 18.976 4.909 14.056 1.636 28.346-7.246 40.294-12.621 16.867-37.865 31.626-63.81 37.718 8.883 11.01 17.297 22.255 22.205 32.094 3.273 6.326 4.208 14.29 1.17 18.976-1.17 1.874-2.338 2.577-3.74.469-15.427-21.084-27.581-36.312-38.567-48.494zm35.995-75.435c0 6.56-2.57 14.76-8.882 26.473-6.31 11.245-12.154 21.084-18.465 32.563 51.656-11.48 78.068-45.683 71.29-62.316-5.143-13.119-28.516-.937-43.943 3.28zm185.244 44.98c3.039-5.623 5.844-10.542 8.415-14.29 2.104-3.046 3.973-3.515 5.61-1.406 3.506 4.217 5.375 14.29-.234 26.004-5.142 10.542-16.83 28.112-22.439 40.528-5.843 13.12-6.077 23.193 1.87 22.725 9.583-.469 22.439-16.4 30.62-32.564 1.168-2.108 2.804-2.343 3.74-.234.934 2.108.934 7.965-2.104 14.525-6.078 12.884-20.803 25.77-33.658 25.066-12.622-.702-19.166-8.199-19.166-19.21-7.48 9.605-17.998 18.273-29.217 18.273-21.738 0-26.179-29.752-6.779-58.099 18.933-27.643 37.398-38.186 49.085-38.186 10.05 0 14.725 7.731 14.257 16.868zm-20.334 36.312c14.725-25.77 16.828-40.295 10.05-40.997-7.48-.703-24.542 14.524-37.397 35.374-12.388 20.147-15.427 40.763-6.311 40.998 9.583.234 21.737-14.76 33.658-35.375z"/>
      <path d="M327.176 55.327c6.31 3.749 10.05 7.497 12.855 12.885 4.909 9.84-4.44 22.256-9.116 34.907-.935 2.81-1.87 3.514-4.908 1.874-5.61-2.812-8.882-9.84-5.61-20.382 2.571-8.434 9.583-18.507 6.311-21.084-3.973-3.28-21.503 11.713-32.021 33.032-12.856 26.472-7.947 45.917 5.843 46.151 19.634.234 36.463-18.507 46.046-33.266 1.168-1.874 3.272-2.109 4.207.234.701 1.874-.234 7.731-4.207 14.056-8.882 13.822-27.347 25.301-45.111 25.536-29.684.468-39.735-28.581-24.542-58.802 14.959-29.518 38.566-42.169 50.253-35.14z"/>
      <path d="M371.765 54.625c-7.947 0-13.323-3.514-15.193-6.091-2.337-3.28-.934-4.92 2.572-4.686 6.544.235 13.089-.234 19.4-.937 7.245-12.885 13.79-23.895 17.763-29.05 2.104-3.045 4.441-2.81 5.61 0 2.571 6.56 2.571 14.291-3.039 26.473 9.116-.234 12.622 3.983 14.492 7.028 1.636 2.812.701 4.451-2.805 4.451-5.142-.702-12.388 0-18.231.937-9.116 15.697-22.439 38.42-31.32 58.1-7.714 17.101-5.143 31.626 4.674 32.094 10.518.469 23.841-16.164 32.49-33.734 1.402-2.812 3.973-3.28 4.908 0 1.168 3.748 0 7.965-2.338 13.353-3.038 6.794-18.465 27.41-37.163 26.707-15.427-.469-27.815-17.805-16.596-44.746 4.909-11.713 14.726-31.392 24.776-49.9zm-251.57 51.07c-7.48 21.553-1.87 36.312 10.517 37.015 19.4.937 36.463-17.804 46.513-33.266 1.17-1.874 3.039-1.874 3.974.234.935 1.874.234 8.434-3.974 14.525-9.816 14.29-27.814 25.067-45.812 25.301-29.684.468-39.968-28.815-24.775-59.036 15.192-30.22 39.033-42.403 50.72-35.61 5.843 3.515 10.05 7.029 13.79 12.183 4.208 5.622 2.338 19.913-7.48 31.86-11.452 14.057-27.112 20.148-43.474 6.794zm2.103-5.153c11.453 7.262 21.036-2.812 27.814-11.714 7.48-9.84 12.622-22.021 9.35-24.598-4.909-3.983-24.309 10.073-35.294 32.329-.702 1.406-1.403 2.811-1.87 3.983z"/>
    </g>
  </g>
</svg>
