<svg xmlns="http://www.w3.org/2000/svg" width="1510" height="414" viewBox="0 0 1510 414">
  <g fill="none" fill-rule="evenodd">
    <g fill-rule="nonzero" transform="translate(10 25)">
      <path fill="#BCB09B" d="M186.879 228.032L204.626 180l41.06 80.146L281 311l-135-36.989z"/>
      <path fill="#F9F9F9" d="M278.566 160l-19.845-27.839L241 0l90 104.312z"/>
      <path fill="#605A4E" d="M377 171.6L316.911 282 279 160.383 331.165 105z"/>
      <path fill="#EAEAEA" d="M205.109 181L171 78.528 192.133 51 258 131.886z"/>
      <path fill="#605A4E" d="M130 138.382L171.189 78 206 181z"/>
      <path fill="#605A4E" d="M88 170.198L130.04 139 205 181.546 187.437 230z" opacity=".6"/>
      <path fill="#605A4E" d="M66 204.338L87.597 169 188 228.135 147.151 274z" opacity=".3"/>
      <path fill="#898071" d="M0 267.004L65.215 204 146 273.755 118.052 300z" opacity=".1"/>
      <path fill="#705E45" d="M118 301.309L146.079 275 281 312.036 224.959 370z" opacity=".15"/>
      <path fill="#8C846F" d="M321.784 360L281 311.896 315.91 282 389 311.896z" opacity=".55"/>
      <path fill="#7A7262" d="M205 181.854L259.074 133 279 160.766 246.27 262z"/>
      <path fill="#8C846F" d="M245 260.176L277.734 159 316 280.894 280.5 311z"/>
      <path fill="#8C846F" d="M315 281.056L375.624 171 411 208.94 389.292 311z"/>
      <path fill="#C1B59A" d="M389 311.27L410.825 209 458 299.309 425.348 323z" opacity=".5"/>
      <path fill="#F4F4F4" d="M259 131l-67-79.963L241.297 0z"/>
    </g>
    <g transform="translate(524 114)">
      <path fill="#47443C" fill-rule="nonzero" d="M68.64 13.785l69.049 142.59H108.58v-.548l-64.889-30.559-14.857 31.144H.31L68.64 13.785zm-15.55 92.037l41.216 20.007L68.64 71.264l-15.55 34.558zm191.434 26.771v23.832h-81.529V19.964h24.948v112.629zm129.232-60.058a54.386 54.386 0 0 1-3.8 20.281 50.725 50.725 0 0 1-10.76 16.73 51.345 51.345 0 0 1-16.54 11.374 52.264 52.264 0 0 1-21.135 4.199h-17.333v31.28h-24.96V19.965h42.293a54.369 54.369 0 0 1 21.778 4.248c12.442 5.19 22.182 15.346 26.891 28.042a56.833 56.833 0 0 1 3.566 20.281zm-52.235 29.288a30.638 30.638 0 0 0 13.012-2.492 22.416 22.416 0 0 0 8.407-6.552 25.517 25.517 0 0 0 4.519-9.368 43.632 43.632 0 0 0 1.35-10.913 32.823 32.823 0 0 0-1.721-10.552 28.239 28.239 0 0 0-5.15-9.181 25.175 25.175 0 0 0-8.58-6.553 27.219 27.219 0 0 0-11.837-2.491h-17.333v58.015h17.333v.087zm128.886-29.475a152.387 152.387 0 0 1 18.076 7.736 55.339 55.339 0 0 1 13.371 9.368 36.546 36.546 0 0 1 8.32 12.184 41.762 41.762 0 0 1 2.897 16.195 40.816 40.816 0 0 1-3.43 16.917 38.331 38.331 0 0 1-9.582 13.093 44.417 44.417 0 0 1-14.857 8.546 57.556 57.556 0 0 1-19.252 3.09 48.492 48.492 0 0 1-18.807-3.55 47.202 47.202 0 0 1-14.857-9.63 43.69 43.69 0 0 1-9.905-14.19 43.007 43.007 0 0 1-3.529-17.366h25.666a20.765 20.765 0 0 0 1.721 8.46 21.468 21.468 0 0 0 4.705 6.826 21.915 21.915 0 0 0 6.871 4.547 20.517 20.517 0 0 0 8.048 1.632c7.594 0 13.045-1.661 16.355-4.983 3.31-3.322 4.96-8.019 4.952-14.09a17.54 17.54 0 0 0-1.448-7.474 14.853 14.853 0 0 0-4.52-5.457 38.505 38.505 0 0 0-7.774-4.46c-3.137-1.395-6.934-2.94-11.39-4.634a132.6 132.6 0 0 1-14.734-6.727 52.168 52.168 0 0 1-11.75-8.459 38.485 38.485 0 0 1-7.948-11 34.048 34.048 0 0 1-3.157-14.189 40.294 40.294 0 0 1 2.884-15.298 33.795 33.795 0 0 1 8.048-11.91 36.702 36.702 0 0 1 13-7.823 51.204 51.204 0 0 1 17.531-2.815 50.158 50.158 0 0 1 17.804 2.915 36.931 36.931 0 0 1 12.84 7.91 33.76 33.76 0 0 1 7.861 11.736 41.206 41.206 0 0 1 2.897 14.55h-25.158a17.034 17.034 0 0 0-4.791-9.966c-2.592-2.55-6.6-3.825-12.022-3.825-4.697 0-8.46 1.213-11.292 3.638-2.83 2.425-4.069 5.822-3.714 10.19-.058 2.194.278 4.38.99 6.453a11.209 11.209 0 0 0 3.343 4.635 26.117 26.117 0 0 0 6.191 3.737 84.767 84.767 0 0 0 9.546 3.488z"/>
      <path fill="#8C846F" d="M561.094 106.077c-6.69 13.162-13.875 28.806-22.051 49.169-.991 2.483-2.23 2.732-3.964.993-3.469-3.725-5.946-11.174-2.23-24.584 6.194-22.598 29.483-69.78 51.286-104.049-8.424-.745-12.883-4.47-15.856-9.933-1.24-2.483-.496-3.725 2.725-4.221C591.816 10.969 610.398.787 626.997.042c12.636-.496 23.538 3.228 29.484 20.115 5.203 14.9 1.734 30.047-7.68 42.712-13.38 17.88-40.138 33.524-67.639 39.98 9.415 11.671 18.334 23.591 23.537 34.02 3.469 6.706 4.46 15.149 1.239 20.115-1.239 1.987-2.478 2.732-3.964.497-16.352-22.35-29.236-38.49-40.88-51.404zm38.154-79.96c0 6.953-2.725 15.644-9.414 28.06-6.69 11.92-12.884 22.35-19.573 34.518 54.754-12.168 82.751-48.424 75.566-66.055-5.45-13.906-30.226-.993-46.579 3.476zm196.36 47.678c3.22-5.96 6.193-11.175 8.919-15.148 2.23-3.228 4.211-3.725 5.946-1.49 3.716 4.47 5.698 15.148-.248 27.564-5.45 11.175-17.839 29.8-23.785 42.96-6.194 13.907-6.442 24.585 1.982 24.088 10.158-.496 23.785-17.382 32.457-34.517 1.238-2.235 2.973-2.483 3.964-.248.99 2.235.99 8.443-2.23 15.396-6.442 13.658-22.05 27.316-35.677 26.57-13.38-.744-20.317-8.69-20.317-20.362-7.928 10.181-19.077 19.37-30.97 19.37-23.041 0-27.748-31.538-7.184-61.585 20.068-29.303 39.641-40.477 52.029-40.477 10.654 0 15.609 8.194 15.113 17.879zm-21.556 38.49c15.609-27.315 17.839-42.712 10.654-43.457-7.928-.744-26.015 15.397-39.642 37.498-13.13 21.356-16.352 43.208-6.69 43.457 10.16.248 23.043-15.645 35.678-37.497z"/>
      <path fill="#8C846F" d="M877.806 58.647c6.69 3.973 10.654 7.947 13.627 13.658 5.203 10.43-4.707 23.591-9.663 37-.99 2.98-1.982 3.726-5.203 1.987-5.946-2.98-9.414-10.43-5.946-21.604 2.726-8.94 10.158-19.618 6.69-22.35-4.212-3.476-22.794 12.417-33.943 35.014-13.627 28.061-8.424 48.672 6.194 48.92 20.811.25 38.65-19.617 48.808-35.262 1.239-1.986 3.469-2.235 4.46.249.743 1.986-.248 8.195-4.46 14.9-9.415 14.65-28.988 26.819-47.817 27.067-31.466.497-42.12-30.296-26.015-62.33 15.857-31.29 40.88-44.699 53.268-37.249z"/>
      <path fill="#8C846F" d="M925.071 57.902c-8.424 0-14.122-3.725-16.104-6.456-2.478-3.477-.991-5.215 2.725-4.967 6.937.248 13.875-.248 20.564-.993 7.68-13.658 14.618-25.33 18.83-30.793 2.23-3.228 4.707-2.98 5.946 0 2.725 6.954 2.725 15.148-3.22 28.061 9.662-.248 13.378 4.222 15.36 7.45 1.735 2.98.744 4.718-2.973 4.718-5.45-.745-13.131 0-19.325.994-9.663 16.637-23.785 40.725-33.2 61.584-8.176 18.128-5.45 33.524 4.955 34.021 11.15.497 25.272-17.134 34.439-35.759 1.486-2.98 4.212-3.476 5.203 0 1.239 3.973 0 8.443-2.478 14.155-3.22 7.201-19.573 29.054-39.393 28.309-16.352-.497-29.484-18.873-17.591-47.43 5.203-12.417 15.609-33.276 26.262-52.894zm-266.665 54.135c-7.928 22.846-1.982 38.49 11.149 39.236 20.564.993 38.65-18.873 49.304-35.263 1.239-1.986 3.22-1.986 4.212.249.99 1.986.248 8.94-4.212 15.396-10.406 15.148-29.483 26.57-48.56 26.82-31.466.496-42.368-30.545-26.263-62.579 16.104-32.034 41.376-44.947 53.763-37.746 6.194 3.725 10.654 7.45 14.618 12.913 4.46 5.96 2.478 21.108-7.928 33.773-12.14 14.9-28.74 21.356-46.083 7.201zm2.23-5.463c12.14 7.698 22.298-2.98 29.483-12.416 7.928-10.43 13.379-23.343 9.91-26.074-5.203-4.222-25.767 10.678-37.411 34.268-.744 1.49-1.487 2.98-1.982 4.222z"/>
    </g>
  </g>
</svg>
