<?xml version="1.0" encoding="UTF-8"?>
<svg width="602px" height="602px" viewBox="0 0 602 602" version="1.1" xmlns="http://www.w3.org/2000/svg" xmlns:xlink="http://www.w3.org/1999/xlink">
    <!-- Generator: Sketch 43.2 (39069) - http://www.bohemiancoding.com/sketch -->
    <title>alps-react</title>
    <desc>Created with Sketch.</desc>
    <defs></defs>
    <g id="Page-1" stroke="none" stroke-width="1" fill="none" fill-rule="evenodd">
        <g id="alps-react" transform="translate(1.000000, 1.000000)">
            <circle id="Oval" stroke="#8C846F" stroke-width="2" fill="#FFFFFF" cx="300" cy="300" r="300"></circle>
            <g id="alps" transform="translate(15.115333, 68.788156)" fill-rule="nonzero">
                <polygon id="Shape" fill="#BCB09B" points="225.544829 276.808947 246.876062 218.672152 296.227501 315.678473 338.673844 377.229994 176.409512 332.460339"></polygon>
                <polygon id="Shape" fill="#F9F9F9" points="335.367179 193.148154 311.539738 159.541196 290.262536 0 398.323493 125.923433"></polygon>
                <polygon id="Shape" fill="#605A4E" points="453.639896 206.763835 381.120188 340.770227 335.367179 193.148154 398.323493 125.923433"></polygon>
                <polygon id="Shape" fill="#EAEAEA" points="246.876062 218.672152 205.175339 95.2989577 231.012713 62.1566623 311.539738 159.541196"></polygon>
                <polygon id="Shape" fill="#605A4E" points="155.834706 167.624156 205.175339 95.2989577 246.876062 218.672152"></polygon>
                <polygon id="Shape" fill="#605A4E" opacity="0.6" points="104.775904 205.056471 155.834706 167.624156 246.876062 218.672152 225.544829 276.808947"></polygon>
                <polygon id="Shape" fill="#605A4E" opacity="0.3" points="78.7980496 247.935059 104.775904 205.056471 225.544829 276.808947 176.409512 332.460339"></polygon>
                <polygon id="Shape" fill="#898071" opacity="0.1" points="0 324.280125 78.7980496 247.935059 176.409512 332.460339 142.640463 364.262679"></polygon>
                <polygon id="Shape" fill="#705E45" opacity="0.15" points="142.640463 364.262679 176.409512 332.460339 338.673844 377.229994 271.276226 447.296718"></polygon>
                <polygon id="Shape" fill="#8C846F" opacity="0.55" points="388.263017 435.896287 338.673844 377.229994 381.120188 340.770227 469.989519 377.229994"></polygon>
                <polygon id="Shape" fill="#7A7262" points="246.876062 218.672152 311.539738 159.541196 335.367179 193.148154 296.227501 315.678473"></polygon>
                <polygon id="Shape" fill="#8C846F" points="296.227501 315.678473 335.367179 193.148154 381.120188 340.770227 338.673844 377.229994"></polygon>
                <polygon id="Shape" fill="#8C846F" points="381.120188 340.770227 453.639896 206.763835 495.956567 252.959894 469.989519 377.229994"></polygon>
                <polygon id="Shape" fill="#C1B59A" opacity="0.5" points="469.989519 377.229994 495.956567 252.959894 552.083428 362.695795 513.235514 391.483234"></polygon>
                <polygon id="Shape" fill="#F4F4F4" points="311.539738 159.541196 231.012713 62.1566623 290.262536 0"></polygon>
            </g>
            <g id="Group" transform="translate(28.000000, 281.000000)" fill-rule="nonzero">
                <path d="M0,116.872595 C0,136.577754 19.2028702,154.972312 49.4763287,165.341235 C43.430848,195.836801 48.3935255,220.41723 64.9671694,229.99446 C82.0023863,239.839348 107.381738,233.02484 131.470528,211.924989 C154.951392,232.172642 178.681976,240.140848 195.241291,230.535929 C212.261157,220.663352 217.43671,194.416471 211.224408,162.968207 C242.756702,152.52237 260.394728,136.837208 260.394728,116.872595 C260.394728,97.6248139 241.15706,80.9736217 211.290932,70.6713566 C217.979136,37.9237725 212.312329,13.9401898 195.051954,3.96711317 C178.411787,-5.64806074 154.404873,2.73240014 130.579108,23.5092158 C105.791307,1.45666674 82.0218318,-5.27580091 64.7798793,4.72496444 C48.1550632,14.3678271 43.4114026,39.3953782 49.4763287,70.4549742 C20.2242668,80.674173 0,97.7027526 0,116.872595 Z" id="Shape" fill="#FFFFFF"></path>
                <path d="M208.367674,78.7893041 C205.781246,77.9003184 203.172874,77.076775 200.545041,76.3194578 C200.98083,74.5450971 201.383825,72.7628103 201.753818,70.9735122 C207.675101,42.1715702 203.803575,18.9688084 190.582315,11.3308196 C177.906295,4.0053331 157.174276,11.6433219 136.235775,29.9010032 C134.172556,31.7041883 132.155134,33.5593201 130.185441,35.4646229 C128.86639,34.1977094 127.524031,32.9553892 126.159054,31.7383016 C104.215032,12.2144469 82.2193895,3.98809159 69.0121101,11.6487099 C56.3479198,18.9946707 52.5968416,40.8084133 57.9277173,68.1038784 C58.4581022,70.8069258 59.056948,73.4960324 59.723675,76.1685946 C56.6113986,77.0543772 53.6055891,77.9983498 50.729906,79.0026678 C25.0036184,87.9898048 8.57329397,102.076118 8.57329397,116.686143 C8.57329397,131.776774 26.2102439,146.912664 53.0076535,156.089458 C55.1805277,156.830121 57.3714878,157.516403 59.5784928,158.147663 C58.8615098,161.026931 58.2249689,163.925714 57.6696156,166.840617 C52.5871628,193.66194 56.556552,214.958438 69.1874042,222.25914 C82.23337,229.796912 104.128998,222.049009 125.45035,203.374298 C127.135539,201.897994 128.82718,200.33225 130.520973,198.691073 C132.654422,200.753653 134.844836,202.756242 137.089661,204.696507 C157.7421,222.503754 178.138587,229.694541 190.758685,222.374442 C203.792821,214.81404 208.02784,191.935634 202.528123,164.100294 C202.108707,161.974201 201.61939,159.802848 201.070923,157.591624 C202.608779,157.13688 204.117599,156.667049 205.589854,156.177821 C233.447632,146.929906 251.571748,131.978284 251.571748,116.686143 C251.571748,102.023316 234.612316,87.8421743 208.367674,78.7893041 Z" id="Shape" fill="#605A4E"></path>
                <path d="M202.355306,146.338545 C201.027157,146.779281 199.66352,147.204931 198.274072,147.617649 C195.19836,137.862188 191.047225,127.488187 185.969074,116.771511 C190.816009,106.30807 194.805831,96.0676905 197.795509,86.3747292 C200.280813,87.0967174 202.694064,87.8564214 205.01913,88.6592292 C227.506241,96.4146758 241.222196,107.883513 241.222196,116.719786 C241.222196,126.132573 226.408234,138.352493 202.356381,146.338545 L202.355306,146.338545 Z M192.375373,166.154428 C194.806906,178.46271 195.154268,189.591027 193.543283,198.290447 C192.095763,206.107316 189.185666,211.318562 185.587298,213.405863 C177.929205,217.847707 161.551577,212.073956 143.890968,196.845393 C141.865945,195.09969 139.825866,193.235452 137.78041,191.263454 C144.627633,183.759087 151.470554,175.034883 158.148936,165.347309 C169.896865,164.303121 180.995239,162.595133 191.06013,160.264297 C191.554825,162.268622 191.995748,164.233077 192.375373,166.154428 L192.375373,166.154428 Z M91.4468518,212.638616 C83.9651285,215.286265 78.0062054,215.361697 74.4046112,213.280862 C66.7389905,208.851949 63.5535853,191.750526 67.8993728,168.813931 C68.4161569,166.103307 69.0078675,163.407566 69.673822,160.729818 C79.626869,162.935653 90.6445856,164.52295 102.420476,165.479854 C109.14295,174.959451 116.183749,183.672879 123.279395,191.303325 C121.771382,192.765042 120.227681,194.189335 118.649696,195.574909 C109.221456,203.833592 99.773858,209.691395 91.4479272,212.638616 L91.4468518,212.638616 Z M56.3955647,146.280355 C44.5465455,142.222134 34.7612646,136.948388 28.0538465,131.194034 C22.0271717,126.021581 18.9837224,120.886844 18.9837224,116.719786 C18.9837224,107.854418 32.1759458,96.5450648 54.1780408,88.8585842 C56.9396207,87.8980352 59.7286722,87.0187008 62.5416115,86.2217108 C65.58291,96.1323461 69.5716567,106.494493 74.3852536,116.973021 C69.5092822,127.6078 65.4635379,138.134819 62.3942785,148.161835 C60.3796241,147.58402 58.3794487,146.956671 56.3955647,146.280355 L56.3955647,146.280355 Z M68.1456448,66.1396623 C63.57832,42.7526319 66.6110151,25.1113346 74.2432976,20.684577 C82.3735014,15.9690241 100.34921,22.6932129 119.296026,39.5500215 C120.506953,40.6276158 121.723257,41.7558571 122.941712,42.9228918 C115.882631,50.5188544 108.906357,59.1665492 102.241956,68.5911895 C90.8134271,69.6526199 79.8731411,71.3573742 69.8157779,73.6407966 C69.1962515,71.1545167 68.6393636,68.652985 68.1456448,66.1385847 L68.1456448,66.1396623 Z M172.963974,92.0741258 C170.588446,87.9624891 168.124795,83.9026085 165.574737,79.8973095 C173.328543,80.8779204 180.756495,82.1818095 187.731693,83.7777268 C185.637843,90.5029932 183.02779,97.535374 179.954228,104.74448 C177.708547,100.474825 175.377997,96.2505313 172.963974,92.0741258 L172.963974,92.0741258 Z M130.219105,50.3561377 C135.006892,55.5533753 139.802206,61.3572985 144.519015,67.6536824 C134.950981,67.2006403 125.366984,67.1984827 115.798748,67.6472168 C120.519858,61.4090231 125.356039,55.6137206 130.219105,50.3561377 L130.219105,50.3561377 Z M87.2000033,92.145247 C84.816204,96.2884378 82.5292303,100.486811 80.3409504,104.736937 C77.3179342,97.5526155 74.73154,90.4889845 72.6194077,83.6678122 C79.5526648,82.1128435 86.9462033,80.8423597 94.6494638,79.8779128 C92.0708269,83.9080343 89.5869889,87.9982731 87.2000033,92.145247 L87.2000033,92.145247 Z M94.8710011,154.304122 C86.9128651,153.41403 79.4074826,152.208201 72.4763764,150.696337 C74.6218468,143.754474 77.2652384,136.538902 80.3527801,129.200484 C82.5502852,133.453761 84.8473084,137.654666 87.2419448,141.799718 C89.6854274,146.028012 92.2291689,150.197332 94.8710011,154.304122 L94.8710011,154.304122 Z M130.506243,183.818354 C125.586179,178.498271 120.679021,172.614606 115.885857,166.285894 C120.53814,166.469085 125.281835,166.561758 130.102959,166.561758 C135.056361,166.561758 139.952766,166.450766 144.77174,166.235247 C140.039875,172.679261 135.261767,178.571547 130.506243,183.818354 Z M180.053167,128.826559 C183.300947,136.244719 186.038976,143.421497 188.213483,150.245902 C181.167306,151.856906 173.560834,153.154329 165.545701,154.117699 C168.114191,150.037618 170.601421,145.906741 173.005915,141.727519 C175.450231,137.480122 177.799896,133.178737 180.053167,128.826559 L180.053167,128.826559 Z M164.013222,136.531359 C160.332261,142.938687 156.444342,149.224384 152.355628,155.378484 C145.145987,155.894652 137.695451,156.160818 130.102959,156.160818 C122.541655,156.160818 115.185756,155.924824 108.10194,155.464692 C103.907181,149.324921 99.9457135,143.028345 96.226035,136.588471 C92.5237428,130.182765 89.0655559,123.638488 85.8589498,116.969788 C89.0573999,110.29909 92.5051366,103.751308 96.1948477,97.3403294 L96.1948477,97.3424846 C99.8834012,90.9301403 103.813682,84.6604878 107.977191,78.5470838 C115.204038,77.9996658 122.613708,77.7130257 130.104035,77.7130257 C137.627699,77.7130257 145.047048,78.001821 152.271745,78.5535493 C156.393141,84.6575459 160.298284,90.9053747 163.979884,97.2853721 C167.682283,103.682088 171.176031,110.197796 174.455587,116.822158 C171.209767,123.514012 167.727129,130.087912 164.014297,136.531359 L164.013222,136.531359 Z M185.428135,20.3753074 C193.564792,25.0779292 196.729764,44.0403572 191.617199,68.9080022 C191.282098,70.527979 190.917828,72.1417601 190.524569,73.7485561 C180.443546,71.4177195 169.495732,69.6827925 158.033866,68.6051982 C151.356559,59.0781864 144.438358,50.4154054 137.493272,42.9175038 C139.313172,41.1594603 141.17638,39.4469937 143.081173,37.7816891 C161.021393,22.1371742 177.788325,15.9604033 185.428135,20.3753074 L185.428135,20.3753074 Z" id="Shape" fill="#FFFFFF"></path>
                <path d="M130.089756,94.9238462 C142.074279,94.9238462 151.788582,104.658834 151.788582,116.666468 C151.788582,128.675179 142.074279,138.410167 130.089756,138.410167 C118.106309,138.410167 108.390931,128.675179 108.390931,116.666468 C108.390931,104.658834 118.106309,94.9238462 130.089756,94.9238462" id="Shape" fill="#605A4E"></path>
            </g>
        </g>
    </g>
</svg>